<svg width="53" height="45" viewBox="0 0 53 45" fill="none" xmlns="http://www.w3.org/2000/svg">
<g clip-path="url(#clip0_362_8)">
<g filter="url(#filter0_i_362_8)">
<path d="M25.1216 44.1213C26.2932 45.2929 28.1927 45.2929 29.3643 44.1213L48.4562 25.0294C49.6277 23.8579 49.6277 21.9584 48.4562 20.7868C47.2846 19.6152 45.3851 19.6152 44.2135 20.7868L27.243 37.7573L10.2724 20.7868C9.10087 19.6152 7.20137 19.6152 6.0298 20.7868C4.85823 21.9584 4.85823 23.8579 6.0298 25.0294L25.1216 44.1213ZM24.243 41.0868V42H30.243V41.0868H24.243Z" fill="#00D7A3"/>
<path d="M24.2819 28.3881C25.6487 29.7549 27.8648 29.7549 29.2316 28.3881L51.5055 6.11421C52.8723 4.74738 52.8723 2.5313 51.5055 1.16447C50.1386 -0.202366 47.9226 -0.202366 46.5557 1.16447L26.7567 20.9634L6.95779 1.16447C5.59095 -0.202366 3.37487 -0.202366 2.00804 1.16447C0.641201 2.5313 0.641201 4.74738 2.00804 6.11421L24.2819 28.3881ZM23.2567 25V25.9132H30.2567V25H23.2567Z" fill="#00D7A3"/>
</g>
</g>
<defs>
<filter id="filter0_i_362_8" x="0.98291" y="0.139343" width="51.5476" height="48.8607" filterUnits="userSpaceOnUse" color-interpolation-filters="sRGB">
<feFlood flood-opacity="0" result="BackgroundImageFix"/>
<feBlend mode="normal" in="SourceGraphic" in2="BackgroundImageFix" result="shape"/>
<feColorMatrix in="SourceAlpha" type="matrix" values="0 0 0 0 0 0 0 0 0 0 0 0 0 0 0 0 0 0 127 0" result="hardAlpha"/>
<feOffset dy="4"/>
<feGaussianBlur stdDeviation="2"/>
<feComposite in2="hardAlpha" operator="arithmetic" k2="-1" k3="1"/>
<feColorMatrix type="matrix" values="0 0 0 0 0 0 0 0 0 0 0 0 0 0 0 0 0 0 0.25 0"/>
<feBlend mode="normal" in2="shape" result="effect1_innerShadow_362_8"/>
</filter>
<clipPath id="clip0_362_8">
<rect width="53" height="45" fill="white"/>
</clipPath>
</defs>
</svg>
